<svg xmlns="http://www.w3.org/2000/svg" width="18" height="18" viewBox="0 0 18 18">
    <path d="M1.684.09A2.263 2.263 0 0 0 .057 1.853C.02 2.047 0 4.633 0 9.066c0 6.027.011 6.953.086 7.242.186.716.582 1.196 1.25 1.514l.375.178h14.586l.32-.151c.38-.179.838-.592 1.04-.939.08-.136.192-.416.248-.62.097-.353.102-.74.09-7.36-.006-3.842-.025-6.48-.042-5.86-.026.995-.038 1.107-.103.953-.04-.095-.91-1.012-1.935-2.037C13.958.03 13.92 0 13.435.002c-.41.002-.918.408-1.034.827-.032.117-.059.736-.059 1.374v1.162l-.491.04C9.446 3.597 7.435 4.71 6.02 6.628c-.667.903-1.21 2.185-1.389 3.274-.098.597-.165 1.308-.125 1.308.017 0 .314-.458.66-1.02.926-1.5 1.38-2.064 2.211-2.752 1.271-1.051 2.755-1.643 4.47-1.78l.487-.04.018 1.29c.017 1.213.025 1.302.145 1.528.266.5.962.728 1.448.474.257-.134 3.79-3.673 3.92-3.925.08-.156.086-.053.086 1.353V7.86L16.83 8.986l-1.122 1.126v5.386l-.138.138-.138.139H9.011c-3.532 0-6.462-.016-6.512-.035-.26-.1-.255.055-.255-6.756V2.583l.164-.165.164-.164h8.087V0L6.325.004C2.695.007 1.942.02 1.685.09M.04 9.042c0 3.873.012 5.45.026 3.503.015-1.947.015-5.116 0-7.042-.014-1.927-.026-.334-.026 3.54" fill="#000" fill-rule="evenodd"/>
</svg>