<?xml version="1.0" encoding="UTF-8"?>
<svg width="20px" height="20px" viewBox="0 0 20 20" version="1.1" xmlns="http://www.w3.org/2000/svg" xmlns:xlink="http://www.w3.org/1999/xlink">
    <title>56B9139D-6089-4759-B547-618556855BA3</title>
    <g id="Reports" stroke="none" stroke-width="1" fill="none" fill-rule="evenodd">
        <g id="Reports---Evaluations-conducted-by-UNDP-country-offices" transform="translate(-1012.000000, -248.000000)" fill="#000000" stroke="#000000" stroke-width="0.5">
            <g id="Group-26-Copy-3" transform="translate(928.000000, 233.000000)">
                <g id="Group-12" transform="translate(25.000000, 15.000000)">
                    <g id="Bitmap" transform="translate(60.000000, 1.000000)">
                        <path d="M5.19342168,0.0424004785 C4.35777616,0.226260038 3.6436561,0.823531 3.31072554,1.61704311 C3.12970179,2.0486048 3.10964658,2.22799713 3.10897924,3.42426263 L3.10838215,4.51904835 L2.60787994,4.53561576 C2.18331357,4.54965057 2.06473845,4.56667525 1.82639403,4.64775356 C0.980633104,4.93551997 0.400366646,5.5155552 0.0988008926,6.37459827 L0,6.65599802 L0,9.27653316 L0,11.8970683 L0.0988008926,12.178468 C0.400507138,13.0379332 0.983056588,13.6199734 1.82639403,13.9045037 C2.06231497,13.9841047 2.18766882,14.0021495 2.60787994,14.0170636 L3.10838215,14.0348622 L3.10838215,15.3240951 C3.10838215,16.7537114 3.12260695,16.8758388 3.32937583,17.2203073 C3.46013862,17.4381459 3.6923014,17.6666073 3.91673713,17.7983024 C4.27362154,18.0077341 4.07802177,17.9999629 8.97391683,17.9999629 C13.8698119,17.9999629 13.6742121,18.0077341 14.0310965,17.7983024 C14.2555323,17.6666073 14.4876951,17.4381459 14.6184578,17.2203073 C14.8253321,16.8756278 14.8394515,16.7541686 14.8394515,15.319241 L14.8394515,14.0251539 L15.2051518,14.0251539 C16.0254135,14.0251539 16.670271,13.7739694 17.192409,13.2510232 C17.553754,12.8891431 17.8632225,12.3060125 17.9152747,11.8888374 C17.9279541,11.7869706 17.9523645,11.703606 17.9694343,11.703606 C17.9871714,11.703606 18.0002723,10.642342 18,9.23256445 C17.9996752,7.8735092 17.9862231,6.78241686 17.9700314,6.80795388 C17.9509947,6.83806366 17.9333981,6.79328592 17.9200865,6.6806205 C17.8502972,6.09049006 17.3599807,5.3477706 16.7909887,4.97034319 C16.3293324,4.66407474 15.8560505,4.52949531 15.2373947,4.52851041 L14.8450712,4.52791244 L14.8325323,3.32316977 L14.8199934,2.11842711 L14.7221759,1.83702736 C14.4250708,0.982627382 13.8520748,0.408466374 12.995496,0.106876195 L12.7145123,0.00792900957 L9.06172424,0.0014568154 C6.10925292,-0.00378425488 5.36763157,0.00405976305 5.19342168,0.0424004785 M5.36555932,1.09983038 C4.78392306,1.25667556 4.36711887,1.67891588 4.21447448,2.26591575 C4.17380209,2.42230366 4.16207102,2.69789954 4.16207102,3.49763762 L4.16207102,4.52791244 L8.97391683,4.52791244 L13.7857627,4.52791244 L13.7857627,3.53020964 C13.7857627,2.98151531 13.7696412,2.44734824 13.7499021,2.34323033 C13.6346988,1.73473855 13.1823502,1.25850466 12.5672417,1.09807163 C12.2756509,1.02198817 5.6480533,1.02360622 5.36555932,1.09983038 M2.23961568,5.63740129 C1.65797943,5.79424647 1.24117524,6.21648679 1.08853084,6.80348666 C1.01066324,7.10282564 1.01066324,11.4502407 1.08853084,11.7495797 C1.24872667,12.3655989 1.72425646,12.8186173 2.33184858,12.9339912 C2.43581255,12.9537595 2.65308319,12.9699048 2.8146137,12.9699048 L3.10838215,12.9699048 L3.10838215,12.0905306 L3.10838215,11.2111564 L2.89416721,11.2111564 C2.49387081,11.2111564 2.28299254,11.0290908 2.28299254,10.6835319 C2.28299254,10.4550001 2.37318831,10.3017076 2.55979661,10.2129963 C2.66927488,10.1609726 3.23960154,10.1559074 8.97391683,10.1559074 C14.7082321,10.1559074 15.2785588,10.1609726 15.3880371,10.2129963 C15.5746454,10.3017076 15.6648411,10.4550001 15.6648411,10.6835319 C15.6648411,11.0290908 15.4539629,11.2111564 15.0536665,11.2111564 L14.8394515,11.2111564 L14.8394515,12.0905306 L14.8394515,12.9699048 L15.13322,12.9699048 C15.2947505,12.9699048 15.5120211,12.9537595 15.6159851,12.9339912 C16.2467935,12.8141852 16.7562169,12.3040075 16.8758457,11.6722651 C16.9241749,11.417141 16.9241749,7.13592529 16.8758457,6.88080124 C16.7606424,6.27230947 16.3082938,5.79607557 15.6931854,5.63564254 C15.399171,5.55892593 2.52421705,5.56061433 2.23961568,5.63740129 M2.55407156,6.83760638 C2.37136191,6.927795 2.28299254,7.08073576 2.28299254,7.30673493 C2.28299254,7.45053021 2.303118,7.52844276 2.36131675,7.61018939 C2.51290745,7.82296277 2.57756882,7.83435946 3.63522658,7.83435946 C4.69288434,7.83435946 4.75754572,7.82296277 4.90913642,7.61018939 C5.01843908,7.45668582 5.01843908,7.15678405 4.90913642,7.00328048 C4.75729986,6.79015535 4.6935868,6.77904006 3.62992302,6.77991943 C2.81710743,6.78058776 2.65160803,6.78945185 2.55407156,6.83760638 M0.0188986284,9.27653316 C0.0188986284,10.6404426 0.0312986284,11.1983879 0.0464986284,10.5164508 C0.0615986284,9.83451368 0.0615986284,8.71855264 0.0464986284,8.03661553 C0.0312986284,7.35467842 0.0188986284,7.91262376 0.0188986284,9.27653316 M4.16207102,13.8557512 C4.16207102,16.4541965 4.16333544,16.5029842 4.23442432,16.6500507 C4.28696827,16.7587414 4.347731,16.8195941 4.45626095,16.8722158 C4.60472571,16.9441838 4.63503683,16.9446763 8.97391683,16.9446763 C13.3127968,16.9446763 13.343108,16.9441838 13.4915727,16.8722158 C13.6001027,16.8195941 13.6608654,16.7587414 13.7134093,16.6500507 C13.7844982,16.5029842 13.7857627,16.4541965 13.7857627,13.8557512 L13.7857627,11.2111564 L8.97391683,11.2111564 L4.16207102,11.2111564 L4.16207102,13.8557512 M7.33079442,12.4656013 C7.14808477,12.5557899 7.0597154,12.7087307 7.0597154,12.9347299 C7.0597154,13.0785251 7.07984085,13.1564377 7.1380396,13.2381843 C7.29777883,13.4624247 7.29718174,13.4623544 8.97391683,13.4623544 C10.6506519,13.4623544 10.6500548,13.4624247 10.8097941,13.2381843 C10.9190967,13.0846808 10.9190967,12.784779 10.8097941,12.6312754 C10.6499143,12.4068239 10.6514246,12.407035 8.96861327,12.4079144 C7.63805009,12.4086179 7.43152707,12.4158991 7.33079442,12.4656013 M7.33079442,14.7167993 C7.14808477,14.8069879 7.0597154,14.9599287 7.0597154,15.1859278 C7.0597154,15.3297231 7.07984085,15.4076357 7.1380396,15.4893823 C7.29777883,15.7136227 7.29718174,15.7135524 8.97391683,15.7135524 C10.6506519,15.7135524 10.6500548,15.7136227 10.8097941,15.4893823 C10.9190967,15.3358787 10.9190967,15.0359769 10.8097941,14.8824734 C10.6499143,14.6580219 10.6514246,14.658233 8.96861327,14.6591123 C7.63805009,14.6598158 7.43152707,14.6670971 7.33079442,14.7167993" id="Shape"></path>
                    </g>
                </g>
            </g>
        </g>
    </g>
</svg>