<svg xmlns="http://www.w3.org/2000/svg" width="16" height="18" viewBox="0 0 16 18">
    <path d="M12.432.079c-.736.18-1.496.784-1.846 1.467-.32.625-.418 1.358-.268 2.004.065.277.063.292-.038.358a454.22 454.22 0 0 1-5.24 3.044c-.052.02-.146-.025-.257-.124a2.763 2.763 0 0 0-1.912-.717c-.846 0-1.511.292-2.094.918-.374.403-.553.728-.683 1.242a2.867 2.867 0 0 0 0 1.458c.13.514.31.839.683 1.241.576.62 1.247.917 2.077.92.7.003 1.222-.17 1.76-.586.129-.1.254-.18.278-.18.035 0 2.912 1.663 5.147 2.974.26.153.31.203.285.287-.08.264-.083 1.021-.004 1.36.299 1.284 1.482 2.252 2.758 2.255a2.876 2.876 0 0 0 2.067-.85c.896-.91 1.103-2.17.548-3.34-.55-1.16-1.832-1.805-3.121-1.57-.428.077-1.046.395-1.4.72l-.303.278-2.072-1.21-2.663-1.55c-.5-.288-.586-.356-.562-.442.143-.514.175-.704.175-1.036 0-.211-.034-.519-.077-.684-.093-.36-.184-.267.878-.883l2.597-1.51 1.822-1.062.254.227c.14.125.434.315.654.422.65.319 1.257.382 1.946.204.843-.218 1.51-.76 1.872-1.525.555-1.168.348-2.43-.548-3.339A2.894 2.894 0 0 0 12.432.08" fill="#fff" fill-rule="evenodd"/>
</svg>